<svg width="13" height="18" viewBox="0 0 13 18" fill="none" xmlns="http://www.w3.org/2000/svg">
<path d="M12.2461 15.3047C12.0352 15.5625 11.7461 15.8242 11.3789 16.0898C11.0117 16.3555 10.5781 16.5938 10.0781 16.8047C9.57031 17.0234 9.00391 17.1992 8.37891 17.332C7.75391 17.4648 7.08203 17.5312 6.36328 17.5312C5.73828 17.5312 5.14844 17.457 4.59375 17.3086C4.04688 17.168 3.54297 16.9609 3.08203 16.6875C2.62891 16.4062 2.21484 16.0625 1.83984 15.6562C1.47266 15.25 1.16016 14.7852 0.902344 14.2617C0.605469 13.6836 0.378906 13.0312 0.222656 12.3047C0.0742188 11.5781 0 10.7891 0 9.9375V7.61719C0 6.80469 0.0742188 6.05078 0.222656 5.35547C0.371094 4.65234 0.582031 4.01562 0.855469 3.44531C1.11328 2.9375 1.41016 2.48047 1.74609 2.07422C2.08984 1.66797 2.46484 1.31641 2.87109 1.01953C3.34766 0.683594 3.86719 0.429688 4.42969 0.257812C4.99219 0.0859375 5.58594 0 6.21094 0C7.17188 0 8.00781 0.121094 8.71875 0.363281C9.4375 0.605469 10.043 0.953125 10.5352 1.40625C11.0273 1.86719 11.4102 2.42578 11.6836 3.08203C11.9648 3.73828 12.1484 4.47656 12.2344 5.29688H9.02344C8.96875 4.88281 8.88281 4.51562 8.76562 4.19531C8.65625 3.875 8.50391 3.60547 8.30859 3.38672C8.08984 3.14453 7.8125 2.96484 7.47656 2.84766C7.14844 2.72266 6.75391 2.66016 6.29297 2.66016C6.04297 2.66016 5.80078 2.69922 5.56641 2.77734C5.33203 2.85547 5.11328 2.96875 4.91016 3.11719C4.64453 3.32031 4.40234 3.58594 4.18359 3.91406C3.97266 4.24219 3.79688 4.62891 3.65625 5.07422C3.54688 5.41797 3.46094 5.80078 3.39844 6.22266C3.34375 6.64453 3.31641 7.10156 3.31641 7.59375V9.9375C3.31641 10.5547 3.35547 11.1172 3.43359 11.625C3.51953 12.1328 3.63672 12.582 3.78516 12.9727C3.87891 13.1992 3.98438 13.4102 4.10156 13.6055C4.22656 13.793 4.36328 13.9609 4.51172 14.1094C4.76172 14.3594 5.05078 14.5508 5.37891 14.6836C5.71484 14.8086 6.09375 14.875 6.51562 14.8828C6.77344 14.8828 7.02734 14.8633 7.27734 14.8242C7.52734 14.7852 7.76172 14.7305 7.98047 14.6602C8.19922 14.5898 8.39062 14.5117 8.55469 14.4258C8.72656 14.332 8.85547 14.2344 8.94141 14.1328L8.95312 11.0391H6.12891V8.57812H12.2344L12.2461 15.3047Z" fill="white"/>
</svg>
