<svg width="48" height="48" viewBox="0 0 48 48" fill="none" xmlns="http://www.w3.org/2000/svg">
<path d="M4 30.887C4 20.397 11.92 12.087 22.41 12.006C23.47 11.998 24.53 11.998 25.59 12.006C36.08 12.086 44 20.397 44 30.887V31.001C44.0004 31.526 43.8973 32.046 43.6967 32.5311C43.496 33.0163 43.2018 33.4572 42.8307 33.8285C42.4596 34.1999 42.0189 34.4945 41.5339 34.6955C41.0489 34.8965 40.529 35 40.004 35H24H7.996C7.4709 35 6.95095 34.8965 6.46587 34.6954C5.9808 34.4944 5.5401 34.1997 5.16899 33.8282C4.79787 33.4567 4.50361 33.0157 4.30303 32.5304C4.10245 32.0452 3.99948 31.5251 4 31V30.887Z" stroke="black" stroke-width="3" stroke-linecap="round" stroke-linejoin="round"/>
<path d="M21.303 12.046C20.5437 10.8451 19.9164 9.56566 19.432 8.23C19.144 7.436 19.491 6.595 20.309 6.387C21.1 6.185 22.29 6 24.001 6C25.713 6 26.903 6.185 27.692 6.387C28.511 6.595 28.857 7.436 28.57 8.23C28.0856 9.56568 27.4583 10.8451 26.699 12.046" stroke="black" stroke-width="3" stroke-linecap="round" stroke-linejoin="round"/>
<path d="M3.09597 37.635C3.33297 40.123 5.59197 41.709 8.08997 41.791C11.225 41.893 16.334 42 24 42C31.665 42 36.774 41.893 39.909 41.79C42.407 41.709 44.666 40.123 44.903 37.635C45.023 36.383 44.034 35.332 42.777 35.28C39.946 35.164 34.156 35 24 35C13.844 35 8.05397 35.164 5.22197 35.28C3.96597 35.332 2.97597 36.383 3.09597 37.635Z" stroke="black" stroke-width="3" stroke-linecap="round" stroke-linejoin="round"/>
<path d="M25.5 17.5C30.3 17.535 34.323 19.914 36.5 23.5" stroke="black" stroke-width="3" stroke-linecap="round" stroke-linejoin="round"/>
</svg>
