<svg width="48" height="48" viewBox="0 0 48 48" fill="none" xmlns="http://www.w3.org/2000/svg">
<path d="M18.289 37.534C17.8155 39.1875 17.2639 40.8177 16.636 42.419C15.991 44.062 14.428 45.146 12.664 45.062C11.9732 45.0287 11.285 44.9543 10.603 44.839C9.85965 44.716 9.16605 44.3858 8.6018 43.8865C8.03756 43.3872 7.62553 42.7389 7.413 42.016C6.755 39.831 5.957 36.389 6.143 32.989" stroke="black" stroke-width="3" stroke-linecap="round" stroke-linejoin="round"/>
<path d="M37.533 18.288C39.1869 17.8148 40.8174 17.2635 42.419 16.636C44.062 15.99 45.146 14.427 45.061 12.663C45.0281 11.9722 44.954 11.284 44.839 10.602C44.716 9.85865 44.3858 9.16504 43.8865 8.6008C43.3872 8.03655 42.7389 7.62452 42.016 7.412C39.831 6.754 36.388 5.956 32.988 6.142" stroke="black" stroke-width="3" stroke-linecap="round" stroke-linejoin="round"/>
<path d="M21.73 31.529C23.6 32.593 25.904 32.451 27.555 31.07C28.1935 30.5395 28.8084 29.9813 29.398 29.397C29.982 28.8077 30.5399 28.1931 31.07 27.555C32.45 25.905 32.593 23.601 31.529 21.731C29.591 18.328 25.989 12.511 20.942 6.49C19.062 4.246 15.808 3.908 13.585 5.813C12.1937 7.00768 10.8487 8.25526 9.553 9.553C8.25527 10.8487 7.00768 12.1937 5.813 13.585C3.908 15.808 4.246 19.062 6.49 20.942C12.51 25.989 18.327 29.592 21.73 31.529Z" stroke="black" stroke-width="3" stroke-linecap="round" stroke-linejoin="round"/>
<path d="M6.008 20.486C5.59309 21.0403 5.21238 21.6193 4.868 22.22C3.552 24.499 3.201 26.95 3.167 28.77C3.133 30.557 4.277 32.077 5.881 32.862C10.419 35.082 14.373 36.49 17.016 37.308C19.128 37.961 21.405 37.221 22.607 35.366C23.0271 34.7188 23.411 34.0487 23.757 33.359C23.941 32.992 24.074 32.612 24.158 32.227" stroke="black" stroke-width="3" stroke-linecap="round" stroke-linejoin="round"/>
<path d="M20.486 6.008C21.0403 5.59308 21.6193 5.21237 22.22 4.868C24.499 3.552 26.949 3.201 28.77 3.167C30.557 3.133 32.077 4.277 32.862 5.881C35.082 10.419 36.489 14.373 37.307 17.016C37.961 19.128 37.221 21.405 35.365 22.607C35.065 22.802 34.755 22.993 34.443 23.174C34.087 23.38 33.72 23.574 33.359 23.757C33 23.9378 32.6197 24.0725 32.227 24.158" stroke="black" stroke-width="3" stroke-linecap="round" stroke-linejoin="round"/>
</svg>
