<svg width="48" height="48" viewBox="0 0 48 48" fill="none" xmlns="http://www.w3.org/2000/svg">
<path d="M5.078 36.31C5.228 40.962 8.285 44.442 12.927 44.775C14.81 44.91 17.14 45 20 45C22.86 45 25.19 44.91 27.073 44.775C31.715 44.442 34.771 40.962 34.922 36.31C34.97 34.832 35 33.077 35 31C35 25.432 34.783 22.078 34.589 20.187C34.452 18.859 33.517 17.847 32.197 17.652C30.164 17.35 26.42 17 20 17C13.58 17 9.835 17.35 7.803 17.652C6.483 17.847 5.548 18.859 5.411 20.187C5.217 22.077 5 25.432 5 31C5 33.077 5.03 34.832 5.078 36.31Z" stroke="black" stroke-width="3" stroke-linecap="round" stroke-linejoin="round"/>
<path d="M35 22H37.632C40.365 22 42.737 23.862 42.92 26.589C43.0275 28.1945 43.0275 29.8055 42.92 31.411C42.737 34.138 40.365 36 37.632 36H35" stroke="black" stroke-width="3" stroke-linecap="round" stroke-linejoin="round"/>
<path d="M25 3V10" stroke="black" stroke-width="3" stroke-linecap="round" stroke-linejoin="round"/>
<path d="M17 5V12" stroke="black" stroke-width="3" stroke-linecap="round" stroke-linejoin="round"/>
</svg>
